<?xml version="1.0" encoding="UTF-8" standalone="no"?>
<svg
   xmlns:dc="http://purl.org/dc/elements/1.1/"
   xmlns:cc="http://creativecommons.org/ns#"
   xmlns:rdf="http://www.w3.org/1999/02/22-rdf-syntax-ns#"
   xmlns:svg="http://www.w3.org/2000/svg"
   xmlns="http://www.w3.org/2000/svg"
   xmlns:sodipodi="http://sodipodi.sourceforge.net/DTD/sodipodi-0.dtd"
   xmlns:inkscape="http://www.inkscape.org/namespaces/inkscape"
   width="800"
   height="400"
   viewBox="0 0 211.667 105.833"
   version="1.1"
   id="svg4"
   sodipodi:docname="city.svg"
   inkscape:version="0.92.1 r15371">
  <metadata
     id="metadata10">
    <rdf:RDF>
      <cc:Work
         rdf:about="">
        <dc:format>image/svg+xml</dc:format>
        <dc:type
           rdf:resource="http://purl.org/dc/dcmitype/StillImage" />
      </cc:Work>
    </rdf:RDF>
  </metadata>
  <defs
     id="defs8" />
  <sodipodi:namedview
     pagecolor="#ffffff"
     bordercolor="#666666"
     borderopacity="1"
     objecttolerance="10"
     gridtolerance="10"
     guidetolerance="10"
     inkscape:pageopacity="0"
     inkscape:pageshadow="2"
     inkscape:window-width="743"
     inkscape:window-height="480"
     id="namedview6"
     showgrid="false"
     inkscape:zoom="0.4375"
     inkscape:cx="400"
     inkscape:cy="200"
     inkscape:window-x="2368"
     inkscape:window-y="148"
     inkscape:window-maximized="0"
     inkscape:current-layer="svg4" />
  <path
     d="M0 105.833h211.667V89.148h-.972v-2.321h-.702v.81h-.81v-1.242h-.81v-.864h-2.376v-5.238h-.918v-1.566h-.702v-.594h-3.293v.594h-2.377v-7.289h-.701v-.703h-5.022v.703h-.702v1.728h-2.052V85.8h-.864v-4.536h-1.08V76.73h-2.808v-7.181h-1.404v-1.242h-.971v-5.238h-.81v-2.916h-.594v-.594h-.378v-1.62h-.54V54.59h-.432v3.348h-.54v1.62h-.972v.594h-.756l-3.294 2.268v.648h-.432v13.661h-.756v4.482h-.54v-5.022h-5.022v3.294h-2.591v8.963h-.54v-.81h-.378V68.685h-4.158v-5.076h-.378v-1.512h-.486v-1.35l-1.188-2.106V57.4h-.27v-4.266h-.378V57.4h-.27v1.241l-.378.702v-2.214h-.756v-.593h-.378v.593h-.972v-.593h-.377v.593h-.973v-.593h-.377v.593h-.973v-.593h-.431v.593h-.973v-.593h-.377v.593h-.972v-.593h-.378v.593h-.972v-.593h-.378v.593h-.756v19.386h-5.616v6.533h-1.242V73.11h-.864v-3.618h-.917V59.396h-2.053v-2.7h-1.728v-.864h-1.025v.864h-.594v-.486h-2.43v.486h-.486v-.486h-1.188v.486h-5.076v18.252h-1.188v13.66h-1.296v-.702l-.971-.593V75.325h.918V73.22h-3.672v-2.322h-.54l-10.044-.973c-.27.595-1.133.378-1.296.973h-.971v2.321h-3.672v2.106h.918v11.987l-.972.594v.702h-1.296V65.66h-3.564v-.864h-1.458v-6.642h-.378v-1.35H93.9v1.35h-1.026v-1.998h-.432v-.378h-.27v-2.214h-.377v-1.781h-.163v-1.026h-.378v1.026h-.215v1.781h-.379v2.214h-.215v.378h-.432v1.998h-1.027v-1.35h-.377v1.35h-.378v6.642h-1.458v3.564h-2.268v-.648h-.702v-.324h-1.188v.324h-2.7v.324h-3.726v.378h-1.187v3.077h-.163v8.91h-1.457v7.883h-.217v-2.807h-.377V69.224h-3.564v5.183h-1.242v-1.944h-3.078v-8.91h-5.183v16.902h-.649v-.864h-.917v-7.506h-2.646V67.28H49.19v11.23h-.378v-.971h-.378V60.908h-6.317v8.316h-3.294v11.825h-.486v-1.08h-1.08v-3.942h-2.376v-4.05h-3.348V71.6h-.594v-1.08h-1.782v-.755h-.432v-.378h.432c-.27-.864-1.404-1.512-2.7-1.512-.107 0-.215 0-.324.054v-3.24h-.864v-1.89H23.76v-.594h.756v-.27h-.756v-.378l-2.97-2.322-3.024 2.322v.378h-.702v.27h.702v.594h-1.458v1.89h-.918v14.039h-1.404V64.094H6.48v11.717H4.05v.54h-.432v.486h-.486v1.242h-.54v11.07H0z"
     fill="#b57e00"
     fill-rule="evenodd"
     id="path2"
     style="fill:#a67d02;fill-opacity:1" />
</svg>
