<svg xmlns="http://www.w3.org/2000/svg" width="665" height="500"><defs><clipPath id="a"><path d="M0 500h500V0H0z"/></clipPath></defs><g clip-path="url(#a)" transform="matrix(1.34 0 0 -1.32536 -1 677.221)" fill="#efdeb3"><path d="M500 133.716V317.66c-4.588-2.428-7.718-.274-7.718-5.826 0-.817.076-1.615.206-2.395a43.967 43.967 0 0 1-1.545-.574c-4.293 5.18-13.231 5.323-20.379.178-7.385-5.317-10.044-14.252-5.938-19.956a10.066 10.066 0 0 1 2.612-2.495 43.36 43.36 0 0 1-4.037-18.314c0-.31.015-.615.021-.923a14.44 14.44 0 0 1-1.254.063c-7.36 0-13.387-5.661-13.99-12.863a43.364 43.364 0 0 1-4.674.789c-1.509 6.384-7.229 11.139-14.074 11.139-7.993 0-14.473-6.48-14.473-14.474 0-1.074.125-2.117.347-3.124a43.766 43.766 0 0 1-10.657-9.51 19.61 19.61 0 0 1-21.019-4.412 24.578 24.578 0 0 1-15.409 5.406c-2.54 0-4.991-.384-7.296-1.097a36.37 36.37 0 0 1-1.305 4.62c6.03 1.12 10.601 6.399 10.601 12.754 0 7.17-5.813 12.982-12.983 12.982-5.234 0-9.734-3.105-11.788-7.568a36.322 36.322 0 0 1-20.229 6.12c-18.701 0-34.107-14.065-36.24-32.192a37.074 37.074 0 0 1-3.76.193c-15.396 0-28.555-9.536-33.919-23.02a54.987 54.987 0 0 1-16.803 2.62 54.816 54.816 0 0 1-25.302-6.16c-3.787 8.904-12.615 15.147-22.9 15.147-10.565 0-19.585-6.59-23.192-15.88a41.583 41.583 0 0 1-10.373 8.672 24.768 24.768 0 0 1 2.175 10.17c0 13.738-11.137 24.875-24.875 24.875-3.178 0-6.213-.602-9.006-1.688-.186.23-.369.463-.558.69a12.954 12.954 0 0 1 4.752 10.039c0 7.17-5.812 12.982-12.982 12.982a12.92 12.92 0 0 1-5.46-1.216c-2.633 6.878-9.278 11.77-17.082 11.77-8.655 0-15.889-6.013-17.796-14.086a54.705 54.705 0 0 1-5.91-.998c-.764 9.109-8.386 16.266-17.692 16.266-.536 0-1.063-.033-1.587-.08.009.39.027.777.027 1.168 0 24.1-14.527 24.304-27.176 23.461-10.568 31.684-35.984-13.964-20.91-4.56L0 133.715zM183.44 398.14a3.996 3.996 0 0 1-3.996 3.996 3.955 3.955 0 0 1-1.938-.52 5.466 5.466 0 0 1-6.34 2.608c-1.28 3.484-4.619 5.974-8.547 5.974-.476 0-.939-.047-1.395-.118-.982 8.045-7.823 14.28-16.132 14.28-7.558 0-13.894-5.164-15.719-12.15a10.76 10.76 0 0 1-4.05.793c-5.403 0-9.865-3.973-10.659-9.154a4.625 4.625 0 0 1-3.162-5.794c-8.35-.288-14.502-1.27-14.502-2.439 0-1.393 8.757-2.523 19.56-2.523 1.001 0 1.984.01 2.944.028a10.74 10.74 0 0 1 10.201-.776 5.883 5.883 0 0 1 10.434.259 16.246 16.246 0 0 1 4.953-.774c1.166 0 2.302.128 3.398.362a5.883 5.883 0 0 1 9.602.99 9.056 9.056 0 0 1 4.527-1.21c2.176 0 4.173.764 5.74 2.037a60.778 60.778 0 0 1 3.562-.432c.19-.028.382-.045.578-.053 3.123-.273 6.888-.43 10.941-.43 10.802 0 19.56 1.13 19.56 2.522 0 1.394-8.758 2.524-19.56 2.524"/><path d="M462.44 299.14a3.996 3.996 0 0 1-3.996 3.996 3.958 3.958 0 0 1-1.938-.52 5.467 5.467 0 0 1-6.34 2.608c-1.28 3.484-4.619 5.974-8.547 5.974-.476 0-.94-.047-1.396-.118-.98 8.045-7.822 14.28-16.13 14.28-7.559 0-13.895-5.164-15.719-12.15a10.767 10.767 0 0 1-4.05.793c-5.405 0-9.866-3.973-10.659-9.154a4.625 4.625 0 0 1-3.163-5.794c-8.35-.288-14.502-1.27-14.502-2.439 0-1.393 8.756-2.523 19.56-2.523 1 0 1.984.01 2.944.028a10.74 10.74 0 0 1 10.201-.776 5.884 5.884 0 0 1 10.434.259 16.251 16.251 0 0 1 4.953-.774c1.166 0 2.301.128 3.398.362a5.883 5.883 0 0 1 9.602.99 9.053 9.053 0 0 1 4.527-1.21c2.176 0 4.173.764 5.74 2.037a60.631 60.631 0 0 1 3.562-.432c.19-.028.382-.045.578-.053 3.123-.273 6.887-.43 10.941-.43 10.803 0 19.56 1.13 19.56 2.522 0 1.394-8.757 2.524-19.56 2.524m-202.944 28.993a3.074 3.074 0 0 0 3.074 3.075 3.04 3.04 0 0 0 1.491-.402 4.205 4.205 0 0 0 4.878 2.008c.986 2.68 3.554 4.596 6.576 4.596.366 0 .722-.036 1.074-.09.754 6.188 6.017 10.985 12.41 10.985 5.815 0 10.69-3.972 12.094-9.347a8.28 8.28 0 0 0 3.117.61c4.156 0 7.59-3.056 8.2-7.042a3.558 3.558 0 0 0 2.433-4.459c6.424-.22 11.157-.977 11.157-1.875 0-1.073-6.737-1.942-15.049-1.942-.769 0-1.526.008-2.266.022a8.254 8.254 0 0 0-7.847-.597 4.527 4.527 0 0 0-8.028.199 12.497 12.497 0 0 0-6.425-.317 4.528 4.528 0 0 0-7.388.761 6.97 6.97 0 0 0-3.482-.93c-1.674 0-3.21.588-4.416 1.567a46.2 46.2 0 0 0-2.74-.333 4.333 4.333 0 0 0-.445-.04c-2.403-.21-5.3-.332-8.418-.332-8.312 0-15.049.87-15.049 1.942s6.737 1.941 15.05 1.941m88.953 59.928c0 1.221 1.192 2.21 2.662 2.21.47 0 .906-.11 1.29-.288.62.933 1.816 1.567 3.192 1.567a4.33 4.33 0 0 0 1.03-.124c.853 1.926 3.076 3.302 5.692 3.302.317 0 .625-.026.93-.065.653 4.448 5.208 7.897 10.742 7.897 5.033 0 9.252-2.857 10.468-6.72.833.282 1.742.44 2.697.44 3.597 0 6.57-2.198 7.097-5.061 1.292-.305 2.24-1.289 2.24-2.46 0-.26-.048-.51-.134-.745 5.56-.16 9.658-.702 9.658-1.348 0-.77-5.832-1.396-13.026-1.396-.666 0-1.321.005-1.962.016a8.244 8.244 0 0 0-3.873-.946c-1.04 0-2.027.188-2.919.517-.669-1.002-1.954-1.68-3.43-1.68-1.546 0-2.879.745-3.519 1.823a12.927 12.927 0 0 0-5.56-.228c-.72-.691-1.78-1.129-2.966-1.129-1.476 0-2.76.676-3.429 1.676a7.004 7.004 0 0 0-3.014-.669c-1.45 0-2.778.422-3.822 1.128a45.612 45.612 0 0 0-2.373-.24 4.583 4.583 0 0 0-.384-.03 104.36 104.36 0 0 0-7.287-.238c-7.193 0-13.025.625-13.025 1.396 0 .77 5.832 1.395 13.025 1.395"/></g></svg>