<?xml version="1.0" encoding="UTF-8" standalone="no"?>
<!-- Created with Inkscape (http://www.inkscape.org/) -->

<svg
   xmlns:dc="http://purl.org/dc/elements/1.1/"
   xmlns:cc="http://creativecommons.org/ns#"
   xmlns:rdf="http://www.w3.org/1999/02/22-rdf-syntax-ns#"
   xmlns:svg="http://www.w3.org/2000/svg"
   xmlns="http://www.w3.org/2000/svg"
   xmlns:sodipodi="http://sodipodi.sourceforge.net/DTD/sodipodi-0.dtd"
   xmlns:inkscape="http://www.inkscape.org/namespaces/inkscape"
   version="1.1"
   id="svg2"
   xml:space="preserve"
   width="302.97333"
   height="226.02933"
   viewBox="0 0 302.97333 226.02933"
   sodipodi:docname="img2-3.svg"
   inkscape:version="0.92.1 r15371"><metadata
     id="metadata8"><rdf:RDF><cc:Work
         rdf:about=""><dc:format>image/svg+xml</dc:format><dc:type
           rdf:resource="http://purl.org/dc/dcmitype/StillImage" /><dc:title></dc:title></cc:Work></rdf:RDF></metadata><defs
     id="defs6"><clipPath
       clipPathUnits="userSpaceOnUse"
       id="clipPath18"><path
         d="M 0,169.522 H 227.23 V 0 H 0 Z"
         id="path16"
         inkscape:connector-curvature="0" /></clipPath></defs><sodipodi:namedview
     pagecolor="#ffffff"
     bordercolor="#666666"
     borderopacity="1"
     objecttolerance="10"
     gridtolerance="10"
     guidetolerance="10"
     inkscape:pageopacity="0"
     inkscape:pageshadow="2"
     inkscape:window-width="1366"
     inkscape:window-height="705"
     id="namedview4"
     showgrid="false"
     inkscape:zoom="1.0441123"
     inkscape:cx="151.48666"
     inkscape:cy="113.01466"
     inkscape:window-x="-8"
     inkscape:window-y="-8"
     inkscape:window-maximized="1"
     inkscape:current-layer="g10" /><g
     id="g10"
     inkscape:groupmode="layer"
     inkscape:label="img2-3"
     transform="matrix(1.3333333,0,0,-1.3333333,0,226.02933)"><g
       id="g12"><g
         id="g14"
         clip-path="url(#clipPath18)"><g
           id="g20"
           transform="translate(200.127,84.7607)"><path
             d="m 0,0 c 0,-46.811 -37.948,-84.761 -84.761,-84.761 -46.812,0 -84.761,37.95 -84.761,84.761 0,46.813 37.949,84.761 84.761,84.761 C -37.948,84.761 0,46.813 0,0"
             style="fill:#72ccd4;fill-opacity:1;fill-rule:nonzero;stroke:none"
             id="path22"
             inkscape:connector-curvature="0" /></g><path
           d="M 162.815,59.099 H 67.512 v 67.132 h 95.303 z"
           style="fill:#b4e1e7;fill-opacity:1;fill-rule:nonzero;stroke:none"
           id="path24"
           inkscape:connector-curvature="0" /><path
           d="m 72.176,122.099 h 86 v -55 h -86 z"
           style="fill:#ffffff;fill-opacity:1;fill-rule:nonzero;stroke:none"
           id="path26"
           inkscape:connector-curvature="0" /><path
           d="m 163.176,62.099 h -96 v 64 h 96 z m -2.71,71 H 69.504 c -4.697,0 -8.328,-4.034 -8.328,-8.712 v -60.37 c 0,-4.678 3.631,-8.918 8.328,-8.918 h 90.962 c 4.7,0 8.71,4.24 8.71,8.918 v 60.37 c 0,4.678 -4.01,8.712 -8.71,8.712"
           style="fill:#132c35;fill-opacity:1;fill-rule:nonzero;stroke:none"
           id="path28"
           inkscape:connector-curvature="0" /><g
           id="g30"
           transform="translate(129.8462,41.3408)"><path
             d="M 0,0 H 11.178 V -4.49 H -40.757 V 0 h 11.178 c 0.912,0.891 2.251,2.667 3.528,6.096 0,0 0.681,2.501 1.935,2.596 0.616,0.048 4.997,0.05 9.326,0.039 4.332,0.011 8.717,0.009 9.326,-0.039 C -4.203,8.597 -3.529,6.096 -3.529,6.096 -2.251,2.667 -0.909,0.891 0,0"
             style="fill:#fcfdfd;fill-opacity:1;fill-rule:nonzero;stroke:none"
             id="path32"
             inkscape:connector-curvature="0" /></g><g
           id="g34"
           transform="translate(129.8462,41.3408)"><path
             d="m 0,0 c -0.909,0.891 -2.251,2.667 -3.529,6.096 0,0 -0.674,2.501 -1.935,2.596 -0.609,0.048 -4.994,0.05 -9.326,0.039 -2.343,0.006 -4.695,0.008 -6.464,10e-4 5.445,-3.735 10.366,-8.258 14.828,-13.222 H 11.178 V 0 Z"
             style="fill:#e0e3dd;fill-opacity:1;fill-rule:nonzero;stroke:none"
             id="path36"
             inkscape:connector-curvature="0" /></g><path
           d="m 102.176,111.099 h -30 v 11 h 30 z"
           style="fill:#f26327;fill-opacity:1;fill-rule:nonzero;stroke:none"
           id="path38"
           inkscape:connector-curvature="0" /><path
           d="m 102.176,67.099 h -30 v 44 h 30 z"
           style="fill:#3d4f54;fill-opacity:1;fill-rule:nonzero;stroke:none"
           id="path40"
           inkscape:connector-curvature="0" /><path
           d="m 97.176,97.099 h -20 v 9 h 20 z"
           style="fill:#1c2c39;fill-opacity:1;fill-rule:nonzero;stroke:none"
           id="path42"
           inkscape:connector-curvature="0" /><path
           d="m 97.176,82.099 h -20 v 9 h 20 z"
           style="fill:#1c2c39;fill-opacity:1;fill-rule:nonzero;stroke:none"
           id="path44"
           inkscape:connector-curvature="0" /><path
           d="m 97.176,72.099 h -20 v 5 h 20 z"
           style="fill:#1c2c39;fill-opacity:1;fill-rule:nonzero;stroke:none"
           id="path46"
           inkscape:connector-curvature="0" /><path
           d="m 151.176,107.099 h -37 v 3 h 37 z"
           style="fill:#ffda86;fill-opacity:1;fill-rule:nonzero;stroke:none"
           id="path48"
           inkscape:connector-curvature="0" /><path
           d="m 151.176,99.099 h -37 v 3 h 37 z"
           style="fill:#f26327;fill-opacity:1;fill-rule:nonzero;stroke:none"
           id="path50"
           inkscape:connector-curvature="0" /><path
           d="m 151.176,91.099 h -37 v 3 h 37 z"
           style="fill:#ffda86;fill-opacity:1;fill-rule:nonzero;stroke:none"
           id="path52"
           inkscape:connector-curvature="0" /><path
           d="m 151.176,83.099 h -37 v 3 h 37 z"
           style="fill:#4d4f5b;fill-opacity:1;fill-rule:nonzero;stroke:none"
           id="path54"
           inkscape:connector-curvature="0" /><path
           d="m 151.176,75.099 h -37 v 3 h 37 z"
           style="fill:#72ccd4;fill-opacity:1;fill-rule:nonzero;stroke:none"
           id="path56"
           inkscape:connector-curvature="0" /><path
           d="M 9.412,35.844 H 0 v 16.61 h 9.412 z"
           style="fill:#ffffff;fill-opacity:1;fill-rule:nonzero;stroke:none"
           id="path58"
           inkscape:connector-curvature="0" /><path
           d="M 18.824,35.844 H 9.412 v 6.091 h 9.412 z"
           style="fill:#f26327;fill-opacity:1;fill-rule:nonzero;stroke:none"
           id="path60"
           inkscape:connector-curvature="0" /><path
           d="m 28.237,35.844 h -9.413 v 17.164 h 9.413 z"
           style="fill:#ffd77b;fill-opacity:1;fill-rule:nonzero;stroke:none"
           id="path62"
           inkscape:connector-curvature="0" /><path
           d="m 37.649,35.844 h -9.412 v 34.327 h 9.412 z"
           style="fill:#474f5b;fill-opacity:1;fill-rule:nonzero;stroke:none"
           id="path64"
           inkscape:connector-curvature="0" /><path
           d="m 47.061,35.844 h -9.412 v 46.509 h 9.412 z"
           style="fill:#1c2c39;fill-opacity:1;fill-rule:nonzero;stroke:none"
           id="path66"
           inkscape:connector-curvature="0" /><path
           d="m 56.473,35.844 h -9.412 v 19.933 h 9.412 z"
           style="fill:#ffd77b;fill-opacity:1;fill-rule:nonzero;stroke:none"
           id="path68"
           inkscape:connector-curvature="0" /><path
           d="m 65.886,35.844 h -9.414 v 8.306 h 9.414 z"
           style="fill:#f26327;fill-opacity:1;fill-rule:nonzero;stroke:none"
           id="path70"
           inkscape:connector-curvature="0" /><path
           d="m 227.23,35.844 h 9.412 v 16.61 h -9.412 z"
           style="fill:#ffffff;fill-opacity:1;fill-rule:nonzero;stroke:none"
           id="path72"
           inkscape:connector-curvature="0" /><path
           d="m 217.818,35.844 h 9.412 v 6.091 h -9.412 z"
           style="fill:#f26327;fill-opacity:1;fill-rule:nonzero;stroke:none"
           id="path74"
           inkscape:connector-curvature="0" /><path
           d="m 208.405,35.844 h 9.414 v 17.164 h -9.414 z"
           style="fill:#ffd77b;fill-opacity:1;fill-rule:nonzero;stroke:none"
           id="path76"
           inkscape:connector-curvature="0" /><path
           d="m 198.993,35.844 h 9.412 v 34.327 h -9.412 z"
           style="fill:#474f5b;fill-opacity:1;fill-rule:nonzero;stroke:none"
           id="path78"
           inkscape:connector-curvature="0" /><path
           d="m 189.581,35.844 h 9.412 v 46.509 h -9.412 z"
           style="fill:#1c2c39;fill-opacity:1;fill-rule:nonzero;stroke:none"
           id="path80"
           inkscape:connector-curvature="0" /><path
           d="m 180.169,35.844 h 9.412 v 19.933 h -9.412 z"
           style="fill:#ffd77b;fill-opacity:1;fill-rule:nonzero;stroke:none"
           id="path82"
           inkscape:connector-curvature="0" /><path
           d="m 170.756,35.844 h 9.414 v 8.306 h -9.414 z"
           style="fill:#f26327;fill-opacity:1;fill-rule:nonzero;stroke:none"
           id="path84"
           inkscape:connector-curvature="0" /></g></g></g></svg>