<?xml version="1.0" encoding="UTF-8" standalone="no"?>
<!-- Created with Inkscape (http://www.inkscape.org/) -->

<svg
   xmlns:dc="http://purl.org/dc/elements/1.1/"
   xmlns:cc="http://creativecommons.org/ns#"
   xmlns:rdf="http://www.w3.org/1999/02/22-rdf-syntax-ns#"
   xmlns:svg="http://www.w3.org/2000/svg"
   xmlns="http://www.w3.org/2000/svg"
   xmlns:sodipodi="http://sodipodi.sourceforge.net/DTD/sodipodi-0.dtd"
   xmlns:inkscape="http://www.inkscape.org/namespaces/inkscape"
   version="1.1"
   id="svg2"
   xml:space="preserve"
   width="226.02933"
   height="232"
   viewBox="0 0 226.02933 232"
   sodipodi:docname="img2-1.svg"
   inkscape:version="0.92.1 r15371"><metadata
     id="metadata8"><rdf:RDF><cc:Work
         rdf:about=""><dc:format>image/svg+xml</dc:format><dc:type
           rdf:resource="http://purl.org/dc/dcmitype/StillImage" /><dc:title></dc:title></cc:Work></rdf:RDF></metadata><defs
     id="defs6"><clipPath
       clipPathUnits="userSpaceOnUse"
       id="clipPath18"><path
         d="M 0,174 H 169.522 V 0 H 0 Z"
         id="path16"
         inkscape:connector-curvature="0" /></clipPath><clipPath
       clipPathUnits="userSpaceOnUse"
       id="clipPath266"><path
         d="M 35.6104,48.412 H 61.7277 V 27.1563 H 35.6104 Z"
         id="path264"
         inkscape:connector-curvature="0" /></clipPath></defs><sodipodi:namedview
     pagecolor="#ffffff"
     bordercolor="#666666"
     borderopacity="1"
     objecttolerance="10"
     gridtolerance="10"
     guidetolerance="10"
     inkscape:pageopacity="0"
     inkscape:pageshadow="2"
     inkscape:window-width="743"
     inkscape:window-height="480"
     id="namedview4"
     showgrid="false"
     inkscape:zoom="1.0172414"
     inkscape:cx="113.01466"
     inkscape:cy="116"
     inkscape:window-x="0"
     inkscape:window-y="0"
     inkscape:window-maximized="0"
     inkscape:current-layer="g10" /><g
     id="g10"
     inkscape:groupmode="layer"
     inkscape:label="img2-1"
     transform="matrix(1.3333333,0,0,-1.3333333,0,232)"><g
       id="g12"><g
         id="g14"
         clip-path="url(#clipPath18)"><g
           id="g20"
           transform="translate(169.522,89.2388)"><path
             d="m 0,0 c 0,-46.811 -37.948,-84.761 -84.761,-84.761 -46.812,0 -84.761,37.95 -84.761,84.761 0,46.813 37.949,84.761 84.761,84.761 C -37.948,84.761 0,46.813 0,0"
             style="fill:#ffd77b;fill-opacity:1;fill-rule:nonzero;stroke:none"
             id="path22"
             inkscape:connector-curvature="0" /></g><g
           id="g24"
           transform="translate(134.0449,55.3731)"><path
             d="m 0,0 c -10.973,0 -20.278,7.863 -22.125,18.695 -2.083,12.214 6.159,23.844 18.373,25.927 1.257,0.214 2.536,0.323 3.802,0.323 10.972,0 20.278,-7.862 22.125,-18.695 C 24.257,14.037 16.016,2.406 3.802,0.323 2.545,0.109 1.266,0 0,0"
             style="fill:#ffffff;fill-opacity:1;fill-rule:nonzero;stroke:none"
             id="path26"
             inkscape:connector-curvature="0" /></g><g
           id="g28"
           transform="translate(137.5537,57.4165)"><path
             d="M 0,0 C 11.283,1.924 18.87,12.63 16.945,23.913 15.021,35.196 4.315,42.782 -6.968,40.858 -18.25,38.934 -25.837,28.228 -23.913,16.945 -21.989,5.663 -11.283,-1.924 0,0"
             style="fill:#e0e3dd;fill-opacity:1;fill-rule:nonzero;stroke:none"
             id="path30"
             inkscape:connector-curvature="0" /></g><g
           id="g32"
           transform="translate(134.0625,69.5913)"><path
             d="m 0,0 c -4.031,0 -7.45,2.888 -8.129,6.867 -0.765,4.487 2.263,8.759 6.749,9.524 0.461,0.078 0.93,0.118 1.395,0.118 4.031,0 7.449,-2.888 8.129,-6.866 C 8.908,5.156 5.881,0.883 1.395,0.118 0.934,0.04 0.464,0 0,0"
             style="fill:#42505a;fill-opacity:1;fill-rule:nonzero;stroke:none"
             id="path34"
             inkscape:connector-curvature="0" /></g><g
           id="g36"
           transform="translate(133.0249,83.9746)"><path
             d="m 0,0 c 3.384,0.577 6.596,-1.699 7.174,-5.083 0.577,-3.386 -1.7,-6.597 -5.084,-7.175 -3.385,-0.577 -6.597,1.699 -7.174,5.084 C -5.661,-3.789 -3.385,-0.577 0,0"
             style="fill:#95d7e0;fill-opacity:1;fill-rule:nonzero;stroke:none"
             id="path38"
             inkscape:connector-curvature="0" /></g><g
           id="g40"
           transform="translate(130.3921,77.2188)"><path
             d="M 0,0 C -0.345,2.031 1.02,3.958 3.05,4.304 5.081,4.65 7.009,3.285 7.355,1.254 7.702,-0.777 6.335,-2.704 4.305,-3.05 2.274,-3.396 0.347,-2.031 0,0"
             style="fill:#42505a;fill-opacity:1;fill-rule:nonzero;stroke:none"
             id="path42"
             inkscape:connector-curvature="0" /></g><g
           id="g44"
           transform="translate(118.9756,46.8008)"><path
             d="m 0,0 c -0.037,-4.49 -3.706,-8.099 -8.195,-8.061 l -52.223,0.437 c -4.489,0.037 -8.098,3.707 -8.061,8.196 l 0.678,80.94 c 0.038,4.489 3.708,8.097 8.197,8.06 l 52.222,-0.437 c 4.488,-0.037 8.098,-3.707 8.06,-8.196 z"
             style="fill:#ffffff;fill-opacity:1;fill-rule:nonzero;stroke:none"
             id="path46"
             inkscape:connector-curvature="0" /></g><g
           id="g48"
           transform="translate(102.752,128.1831)"><path
             d="m 0,0 c -0.009,-1.207 -1.021,-2.178 -2.261,-2.168 l -30.237,0.232 c -1.239,0.01 -2.236,0.996 -2.227,2.204 0.009,1.207 1.021,2.178 2.261,2.169 L -2.227,2.204 C -0.988,2.194 0.009,1.208 0,0"
             style="fill:#f58461;fill-opacity:1;fill-rule:nonzero;stroke:none"
             id="path50"
             inkscape:connector-curvature="0" /></g><g
           id="g52"
           transform="translate(94.7622,124.3897)"><path
             d="m 0,0 c -0.012,-1.502 -1.239,-2.71 -2.74,-2.699 l -13.367,0.103 c -1.501,0.012 -2.709,1.239 -2.698,2.741 0.012,1.501 1.238,2.709 2.74,2.697 L -2.698,2.739 C -1.196,2.728 0.012,1.502 0,0"
             style="fill:#44525c;fill-opacity:1;fill-rule:nonzero;stroke:none"
             id="path54"
             inkscape:connector-curvature="0" /></g><g
           id="g56"
           transform="translate(73.3384,87.5562)"><path
             d="M 0,0 -3.029,6.43 -6.058,0 Z"
             style="fill:#76cdd6;fill-opacity:1;fill-rule:nonzero;stroke:none"
             id="path58"
             inkscape:connector-curvature="0" /></g><g
           id="g60"
           transform="translate(82.0122,87.5562)"><path
             d="M 0,0 -5.322,12.352 -10.644,0 Z"
             style="fill:#ffd77b;fill-opacity:1;fill-rule:nonzero;stroke:none"
             id="path62"
             inkscape:connector-curvature="0" /></g><g
           id="g64"
           transform="translate(92.8926,87.5562)"><path
             d="M 0,0 -6.952,21.403 -13.902,0 Z"
             style="fill:#42515b;fill-opacity:1;fill-rule:nonzero;stroke:none"
             id="path66"
             inkscape:connector-curvature="0" /></g><g
           id="g68"
           transform="translate(103.4981,87.5562)"><path
             d="M 0,0 -6.893,17.032 -13.786,0 Z"
             style="fill:#f58361;fill-opacity:1;fill-rule:nonzero;stroke:none"
             id="path70"
             inkscape:connector-curvature="0" /></g><g
           id="g72"
           transform="translate(84.7124,79.0215)"><path
             d="m 0,0 c -3.732,0 -6.757,-3.026 -6.757,-6.758 0,-3.732 3.025,-6.758 6.757,-6.758 3.732,0 6.757,3.026 6.757,6.758 C 6.757,-3.026 3.732,0 0,0 m 0,-2.974 c 2.086,0 3.784,-1.697 3.784,-3.784 0,-2.086 -1.698,-3.784 -3.784,-3.784 -2.087,0 -3.784,1.698 -3.784,3.784 0,2.087 1.697,3.784 3.784,3.784"
             style="fill:#eba537;fill-opacity:1;fill-rule:nonzero;stroke:none"
             id="path74"
             inkscape:connector-curvature="0" /></g><g
           id="g76"
           transform="translate(80.9282,72.2632)"><path
             d="m 0,0 c 0,2.001 1.562,3.64 3.529,3.771 v 2.98 C -0.085,6.617 -2.973,3.647 -2.973,0 c 0,-3.646 2.888,-6.616 6.502,-6.751 v 2.98 C 1.562,-3.638 0,-1.999 0,0"
             style="fill:#cd8529;fill-opacity:1;fill-rule:nonzero;stroke:none"
             id="path78"
             inkscape:connector-curvature="0" /></g><g
           id="g80"
           transform="translate(104.6333,78.6612)"><path
             d="m 0,0 c -3.732,0 -6.757,-3.025 -6.757,-6.757 0,-3.733 3.025,-6.758 6.757,-6.758 3.732,0 6.758,3.025 6.758,6.758 C 6.758,-3.025 3.732,0 0,0 m 0,-2.973 c 2.087,0 3.785,-1.698 3.785,-3.784 0,-2.087 -1.698,-3.784 -3.785,-3.784 -2.086,0 -3.784,1.697 -3.784,3.784 0,2.086 1.698,3.784 3.784,3.784"
             style="fill:#f15a4c;fill-opacity:1;fill-rule:nonzero;stroke:none"
             id="path82"
             inkscape:connector-curvature="0" /></g><g
           id="g84"
           transform="translate(100.9087,71.2574)"><path
             d="m 0,0 h -3.001 c 0.323,-3.409 3.179,-6.079 6.665,-6.109 L 3.601,-3.131 C 1.791,-3.072 0.301,-1.739 0,0"
             style="fill:#bd3c31;fill-opacity:1;fill-rule:nonzero;stroke:none"
             id="path86"
             inkscape:connector-curvature="0" /></g><g
           id="g88"
           transform="translate(104.6333,75.688)"><path
             d="m 0,0 c 2.087,0 3.785,-1.698 3.785,-3.784 0,-0.221 -0.023,-0.436 -0.06,-0.647 h 3.001 c 0.021,0.213 0.032,0.429 0.032,0.647 0,3.732 -3.026,6.757 -6.758,6.757 -0.116,0 -0.231,-0.003 -0.346,-0.009 l 0.063,-2.979 C -0.189,-0.007 -0.096,0 0,0"
             style="fill:#bd3c31;fill-opacity:1;fill-rule:nonzero;stroke:none"
             id="path90"
             inkscape:connector-curvature="0" /></g><g
           id="g92"
           transform="translate(100.8491,71.9038)"><path
             d="M 0,0 C 0,1.991 1.547,3.624 3.501,3.77 L 3.438,6.749 C -0.133,6.568 -2.973,3.616 -2.973,0 c 0,-0.218 0.012,-0.434 0.032,-0.646 H 0.06 C 0.023,-0.436 0,-0.221 0,0"
             style="fill:#bd3c31;fill-opacity:1;fill-rule:nonzero;stroke:none"
             id="path94"
             inkscape:connector-curvature="0" /></g><g
           id="g96"
           transform="translate(65.3091,78.6675)"><path
             d="m 0,0 c -3.732,0 -6.757,-3.025 -6.757,-6.758 0,-3.732 3.025,-6.757 6.757,-6.757 3.732,0 6.758,3.025 6.758,6.757 C 6.758,-3.025 3.732,0 0,0 m 0,-2.973 c 2.087,0 3.785,-1.698 3.785,-3.785 0,-2.086 -1.698,-3.784 -3.785,-3.784 -2.086,0 -3.784,1.698 -3.784,3.784 0,2.087 1.698,3.785 3.784,3.785"
             style="fill:#42505a;fill-opacity:1;fill-rule:nonzero;stroke:none"
             id="path98"
             inkscape:connector-curvature="0" /></g><g
           id="g100"
           transform="translate(61.5845,71.2637)"><path
             d="m 0,0 h -3.001 c 0.325,-3.426 3.206,-6.106 6.715,-6.111 v 2.973 C 1.853,-3.133 0.308,-1.776 0,0"
             style="fill:#1d2c3a;fill-opacity:1;fill-rule:nonzero;stroke:none"
             id="path102"
             inkscape:connector-curvature="0" /></g><path
           d="m 111.571,55.577 h -53 v 3 h 53 z"
           style="fill:#f58361;fill-opacity:1;fill-rule:nonzero;stroke:none"
           id="path104"
           inkscape:connector-curvature="0" /><path
           d="m 111.571,48.577 h -53 v 3 h 53 z"
           style="fill:#76cdd6;fill-opacity:1;fill-rule:nonzero;stroke:none"
           id="path106"
           inkscape:connector-curvature="0" /><g
           id="g108"
           transform="translate(129.4937,126.9883)"><path
             d="m 0,0 20.872,-29.938 -21.103,0.164 z m -5.971,22.478 -0.415,-60.412 40.407,-0.315 z"
             style="fill:#f26327;fill-opacity:1;fill-rule:nonzero;stroke:none"
             id="path110"
             inkscape:connector-curvature="0" /></g><g
           id="g112"
           transform="translate(31.6807,114.211)"><path
             d="m 0,0 1.323,-0.632 -0.079,-63.24 -1.324,0.004 z"
             style="fill:#f48160;fill-opacity:1;fill-rule:nonzero;stroke:none"
             id="path114"
             inkscape:connector-curvature="0" /></g><g
           id="g116"
           transform="translate(28.0405,113.7754)"><path
             d="m 0,0 1.323,0.439 -0.079,-63.87 -1.323,10e-4 z"
             style="fill:#f58461;fill-opacity:1;fill-rule:nonzero;stroke:none"
             id="path118"
             inkscape:connector-curvature="0" /></g><g
           id="g120"
           transform="translate(29.2959,114.2144)"><path
             d="m 0,0 2.454,-0.004 -0.079,-63.869 -2.456,0.004 z"
             style="fill:#fac1b4;fill-opacity:1;fill-rule:nonzero;stroke:none"
             id="path122"
             inkscape:connector-curvature="0" /></g><g
           id="g124"
           transform="translate(31.75,114.2105)"><path
             d="m 0,0 c 0,0 -0.641,-1.298 -1.095,-1.179 -0.454,0.12 -1.201,1.28 -1.359,1.183 -0.159,-0.099 -0.388,-1.122 -0.76,-1.14 -0.372,-0.02 -0.497,0.512 -0.497,0.512 l 2.339,9.187 2.626,-9.195 C 1.254,-0.632 0.48,-1.752 0,0"
             style="fill:#f7f5f6;fill-opacity:1;fill-rule:nonzero;stroke:none"
             id="path126"
             inkscape:connector-curvature="0" /></g><g
           id="g128"
           transform="translate(31.3296,119.4419)"><path
             d="m 0,0 -0.952,3.332 -0.85,-3.328 c 0,0 0.907,-0.77 1.802,-0.004"
             style="fill:#f58461;fill-opacity:1;fill-rule:nonzero;stroke:none"
             id="path130"
             inkscape:connector-curvature="0" /></g><g
           id="g132"
           transform="translate(42.0654,110.7027)"><path
             d="m 0,0 1.241,-0.593 -0.073,-59.322 -1.243,0.003 z"
             style="fill:#95d6dd;fill-opacity:1;fill-rule:nonzero;stroke:none"
             id="path134"
             inkscape:connector-curvature="0" /></g><g
           id="g136"
           transform="translate(38.6499,110.295)"><path
             d="M 0,0 1.242,0.411 1.167,-59.503 h -1.24 z"
             style="fill:#95d6dd;fill-opacity:1;fill-rule:nonzero;stroke:none"
             id="path138"
             inkscape:connector-curvature="0" /></g><g
           id="g140"
           transform="translate(39.8276,110.7056)"><path
             d="m 0,0 2.302,-0.003 -0.074,-59.913 -2.302,0.003 z"
             style="fill:#daf0f6;fill-opacity:1;fill-rule:nonzero;stroke:none"
             id="path142"
             inkscape:connector-curvature="0" /></g><g
           id="g144"
           transform="translate(42.1299,110.7022)"><path
             d="m 0,0 c 0,0 -0.6,-1.217 -1.026,-1.106 -0.427,0.113 -1.127,1.201 -1.276,1.109 -0.148,-0.092 -0.364,-1.051 -0.713,-1.069 -0.348,-0.019 -0.465,0.48 -0.465,0.48 l 2.194,8.62 2.462,-8.627 C 1.176,-0.593 0.451,-1.644 0,0"
             style="fill:#d9d6dd;fill-opacity:1;fill-rule:nonzero;stroke:none"
             id="path146"
             inkscape:connector-curvature="0" /></g><g
           id="g148"
           transform="translate(41.7359,115.6104)"><path
             d="M 0,0 -0.892,3.126 -1.69,0.002 c 0,0 0.85,-0.721 1.69,-0.002"
             style="fill:#42505a;fill-opacity:1;fill-rule:nonzero;stroke:none"
             id="path150"
             inkscape:connector-curvature="0" /></g><g
           id="g152"
           transform="translate(76.478,15.1763)"><path
             d="M 0,0 -4.557,10.315 71.778,44.04 76.334,33.726 Z"
             style="fill:#72ccd4;fill-opacity:1;fill-rule:nonzero;stroke:none"
             id="path154"
             inkscape:connector-curvature="0" /></g><g
           id="g156"
           transform="translate(144.5547,57.4991)"><path
             d="M 0,0 3.561,-8.117"
             style="fill:#ffffff;fill-opacity:1;fill-rule:nonzero;stroke:none"
             id="path158"
             inkscape:connector-curvature="0" /></g><g
           id="g160"
           transform="translate(141.5313,56.1729)"><path
             d="M 0,0 3.561,-8.117"
             style="fill:#ffffff;fill-opacity:1;fill-rule:nonzero;stroke:none"
             id="path162"
             inkscape:connector-curvature="0" /></g><g
           id="g164"
           transform="translate(138.5073,54.8462)"><path
             d="M 0,0 3.562,-8.117"
             style="fill:#ffffff;fill-opacity:1;fill-rule:nonzero;stroke:none"
             id="path166"
             inkscape:connector-curvature="0" /></g><g
           id="g168"
           transform="translate(135.4834,53.5191)"><path
             d="M 0,0 3.562,-8.117"
             style="fill:#ffffff;fill-opacity:1;fill-rule:nonzero;stroke:none"
             id="path170"
             inkscape:connector-curvature="0" /></g><g
           id="g172"
           transform="translate(132.46,52.1929)"><path
             d="M 0,0 3.561,-8.117"
             style="fill:#ffffff;fill-opacity:1;fill-rule:nonzero;stroke:none"
             id="path174"
             inkscape:connector-curvature="0" /></g><g
           id="g176"
           transform="translate(129.436,50.8663)"><path
             d="M 0,0 3.562,-8.117"
             style="fill:#ffffff;fill-opacity:1;fill-rule:nonzero;stroke:none"
             id="path178"
             inkscape:connector-curvature="0" /></g><g
           id="g180"
           transform="translate(126.4121,49.5391)"><path
             d="M 0,0 3.562,-8.117"
             style="fill:#ffffff;fill-opacity:1;fill-rule:nonzero;stroke:none"
             id="path182"
             inkscape:connector-curvature="0" /></g><g
           id="g184"
           transform="translate(123.3897,48.212)"><path
             d="M 0,0 3.561,-8.117"
             style="fill:#ffffff;fill-opacity:1;fill-rule:nonzero;stroke:none"
             id="path186"
             inkscape:connector-curvature="0" /></g><g
           id="g188"
           transform="translate(120.3643,46.8863)"><path
             d="M 0,0 3.561,-8.118"
             style="fill:#ffffff;fill-opacity:1;fill-rule:nonzero;stroke:none"
             id="path190"
             inkscape:connector-curvature="0" /></g><g
           id="g192"
           transform="translate(117.3408,45.5586)"><path
             d="M 0,0 3.562,-8.116"
             style="fill:#ffffff;fill-opacity:1;fill-rule:nonzero;stroke:none"
             id="path194"
             inkscape:connector-curvature="0" /></g><g
           id="g196"
           transform="translate(114.3174,44.232)"><path
             d="M 0,0 3.562,-8.116"
             style="fill:#ffffff;fill-opacity:1;fill-rule:nonzero;stroke:none"
             id="path198"
             inkscape:connector-curvature="0" /></g><g
           id="g200"
           transform="translate(111.2935,42.9053)"><path
             d="M 0,0 3.562,-8.117"
             style="fill:#ffffff;fill-opacity:1;fill-rule:nonzero;stroke:none"
             id="path202"
             inkscape:connector-curvature="0" /></g><g
           id="g204"
           transform="translate(108.2705,41.5782)"><path
             d="M 0,0 3.561,-8.116"
             style="fill:#ffffff;fill-opacity:1;fill-rule:nonzero;stroke:none"
             id="path206"
             inkscape:connector-curvature="0" /></g><g
           id="g208"
           transform="translate(105.2466,40.2515)"><path
             d="M 0,0 3.562,-8.116"
             style="fill:#ffffff;fill-opacity:1;fill-rule:nonzero;stroke:none"
             id="path210"
             inkscape:connector-curvature="0" /></g><g
           id="g212"
           transform="translate(102.2227,38.9253)"><path
             d="M 0,0 3.561,-8.117"
             style="fill:#ffffff;fill-opacity:1;fill-rule:nonzero;stroke:none"
             id="path214"
             inkscape:connector-curvature="0" /></g><g
           id="g216"
           transform="translate(99.1987,37.5977)"><path
             d="M 0,0 3.562,-8.116"
             style="fill:#ffffff;fill-opacity:1;fill-rule:nonzero;stroke:none"
             id="path218"
             inkscape:connector-curvature="0" /></g><g
           id="g220"
           transform="translate(96.1748,36.2715)"><path
             d="M 0,0 3.562,-8.116"
             style="fill:#ffffff;fill-opacity:1;fill-rule:nonzero;stroke:none"
             id="path222"
             inkscape:connector-curvature="0" /></g><g
           id="g224"
           transform="translate(93.1514,34.9449)"><path
             d="M 0,0 3.562,-8.117"
             style="fill:#ffffff;fill-opacity:1;fill-rule:nonzero;stroke:none"
             id="path226"
             inkscape:connector-curvature="0" /></g><g
           id="g228"
           transform="translate(90.1275,33.6182)"><path
             d="M 0,0 3.562,-8.116"
             style="fill:#ffffff;fill-opacity:1;fill-rule:nonzero;stroke:none"
             id="path230"
             inkscape:connector-curvature="0" /></g><g
           id="g232"
           transform="translate(87.104,32.2915)"><path
             d="M 0,0 3.561,-8.117"
             style="fill:#ffffff;fill-opacity:1;fill-rule:nonzero;stroke:none"
             id="path234"
             inkscape:connector-curvature="0" /></g><g
           id="g236"
           transform="translate(84.0811,30.9649)"><path
             d="M 0,0 3.561,-8.117"
             style="fill:#ffffff;fill-opacity:1;fill-rule:nonzero;stroke:none"
             id="path238"
             inkscape:connector-curvature="0" /></g><g
           id="g240"
           transform="translate(81.0571,29.6377)"><path
             d="M 0,0 3.561,-8.116"
             style="fill:#ffffff;fill-opacity:1;fill-rule:nonzero;stroke:none"
             id="path242"
             inkscape:connector-curvature="0" /></g><g
           id="g244"
           transform="translate(78.0332,28.3116)"><path
             d="M 0,0 3.562,-8.117"
             style="fill:#ffffff;fill-opacity:1;fill-rule:nonzero;stroke:none"
             id="path246"
             inkscape:connector-curvature="0" /></g><g
           id="g248"
           transform="translate(75.0098,26.9849)"><path
             d="M 0,0 3.561,-8.117"
             style="fill:#ffffff;fill-opacity:1;fill-rule:nonzero;stroke:none"
             id="path250"
             inkscape:connector-curvature="0" /></g><g
           id="g252"
           transform="translate(52.0405,41.8706)"><path
             d="m 0,0 7.069,-5.259 c 2.877,-2.139 3.475,-6.206 1.335,-9.083 l -0.277,-0.372 c -2.14,-2.877 -6.207,-3.474 -9.083,-1.335 l -6.698,4.982"
             style="fill:#42505a;fill-opacity:1;fill-rule:nonzero;stroke:none"
             id="path254"
             inkscape:connector-curvature="0" /></g><g
           id="g256"
           transform="translate(44.3862,30.8033)"><path
             d="m 0,0 -7.441,5.535 c -2.877,2.14 -3.474,6.207 -1.335,9.083 l 0.278,0.372 c 2.139,2.878 6.206,3.475 9.083,1.336 l 7.069,-5.259"
             style="fill:#f58461;fill-opacity:1;fill-rule:nonzero;stroke:none"
             id="path258"
             inkscape:connector-curvature="0" /></g><g
           id="g260"><g
             id="g262" /><g
             id="g276"><g
               clip-path="url(#clipPath266)"
               id="g274"
               style="opacity:0.46000701"><g
                 id="g272"><g
                   transform="translate(60.1675,27.1563)"
                   id="g270"><path
                     d="m 0,0 0.277,0.372 c 2.14,2.877 1.542,6.944 -1.335,9.084 l -7.069,5.258 -7.07,5.259 c -2.876,2.139 -6.943,1.542 -9.083,-1.336 l -0.277,-0.372"
                     style="fill:#f58461;fill-opacity:1;fill-rule:nonzero;stroke:none"
                     id="path268"
                     inkscape:connector-curvature="0" /></g></g></g></g></g><g
           id="g278"
           transform="translate(73.0801,150.4644)"><path
             d="m 0,0 c -0.249,-0.004 -0.446,-0.183 -0.46,-0.405 -1.498,-0.635 -5.564,-2.417 -5.557,-3.077 0.009,-0.66 4.116,-2.345 5.631,-2.944 0.019,-0.221 0.22,-0.394 0.469,-0.39 0.237,0.004 0.422,0.167 0.454,0.374 0.042,-0.003 0.084,-0.012 0.127,-0.012 l 23.103,0.282 c 0.963,0.011 1.734,0.8 1.724,1.765 l -0.033,2.616 c -0.012,0.961 -0.803,1.732 -1.764,1.722 L 0.59,-0.351 C 0.546,-0.352 0.506,-0.361 0.462,-0.364 0.428,-0.158 0.238,0 0,0"
             style="fill:#ffffff;fill-opacity:1;fill-rule:nonzero;stroke:none"
             id="path280"
             inkscape:connector-curvature="0" /></g></g></g></g></svg>