<?xml version="1.0" encoding="UTF-8" standalone="no"?>
<!-- Created with Inkscape (http://www.inkscape.org/) -->

<svg
   xmlns:dc="http://purl.org/dc/elements/1.1/"
   xmlns:cc="http://creativecommons.org/ns#"
   xmlns:rdf="http://www.w3.org/1999/02/22-rdf-syntax-ns#"
   xmlns:svg="http://www.w3.org/2000/svg"
   xmlns="http://www.w3.org/2000/svg"
   xmlns:sodipodi="http://sodipodi.sourceforge.net/DTD/sodipodi-0.dtd"
   xmlns:inkscape="http://www.inkscape.org/namespaces/inkscape"
   version="1.1"
   id="svg2"
   xml:space="preserve"
   width="307.508"
   height="268.50668"
   viewBox="0 0 307.508 268.50668"
   sodipodi:docname="img2-2.svg"
   inkscape:version="0.92.1 r15371"><metadata
     id="metadata8"><rdf:RDF><cc:Work
         rdf:about=""><dc:format>image/svg+xml</dc:format><dc:type
           rdf:resource="http://purl.org/dc/dcmitype/StillImage" /><dc:title></dc:title></cc:Work></rdf:RDF></metadata><defs
     id="defs6"><clipPath
       clipPathUnits="userSpaceOnUse"
       id="clipPath18"><path
         d="M 0,201.38 H 230.631 V 0 H 0 Z"
         id="path16"
         inkscape:connector-curvature="0" /></clipPath><clipPath
       clipPathUnits="userSpaceOnUse"
       id="clipPath102"><path
         d="M 36.7734,113.236 H 61.3828 V 68.8028 H 36.7734 Z"
         id="path100"
         inkscape:connector-curvature="0" /></clipPath><clipPath
       clipPathUnits="userSpaceOnUse"
       id="clipPath106"><path
         d="M 36.7734,113.236 H 61.4692 V 68.8027 H 36.7734 Z"
         id="path104"
         inkscape:connector-curvature="0" /></clipPath><clipPath
       clipPathUnits="userSpaceOnUse"
       id="clipPath110"><path
         d="m 52.482,113.236 h 5.652 c 0,0 2.21,-0.173 3.171,-2.559 l 0.077,-40.169 c 0,0 0.087,-1.505 -1.411,-1.705 -1.542,0.112 -23.198,0 -23.198,0"
         id="path108"
         inkscape:connector-curvature="0" /></clipPath><clipPath
       clipPathUnits="userSpaceOnUse"
       id="clipPath114"><path
         d="M -24276,24354.4 H 8490 V -8411.62 h -32766 z"
         id="path112"
         inkscape:connector-curvature="0" /></clipPath><clipPath
       clipPathUnits="userSpaceOnUse"
       id="clipPath118"><path
         d="M -24276,24354.4 H 8490 V -8411.62 h -32766 z"
         id="path116"
         inkscape:connector-curvature="0" /></clipPath><mask
       maskUnits="userSpaceOnUse"
       x="0"
       y="0"
       width="1"
       height="1"
       id="mask120"><g
         id="g132"><g
           clip-path="url(#clipPath114)"
           id="g130"><g
             id="g128"><g
               id="g122" /><g
               id="g126"><g
                 clip-path="url(#clipPath118)"
                 id="g124" /></g></g></g></g></mask><linearGradient
       x1="0"
       y1="0"
       x2="1"
       y2="0"
       gradientUnits="userSpaceOnUse"
       gradientTransform="matrix(24.609346,0,0,-24.609346,36.773437,91.019531)"
       spreadMethod="pad"
       id="linearGradient140"><stop
         style="stop-opacity:1;stop-color:#231f20"
         offset="0"
         id="stop134" /><stop
         style="stop-opacity:1;stop-color:#231f20"
         offset="0.3751445"
         id="stop136" /><stop
         style="stop-opacity:1;stop-color:#ffffff"
         offset="1"
         id="stop138" /></linearGradient><mask
       maskUnits="userSpaceOnUse"
       x="0"
       y="0"
       width="1"
       height="1"
       id="mask142"><g
         id="g168"><g
           clip-path="url(#clipPath102)"
           id="g166"
           style="opacity:0.60000598"><g
             id="g164"><g
               id="g144" /><g
               id="g162"><g
                 clip-path="url(#clipPath106)"
                 id="g160"><g
                   id="g158"><g
                     clip-path="url(#clipPath110)"
                     id="g156"><g
                       id="g154"><g
                         id="g146" /><g
                         mask="url(#mask120)"
                         id="g152"><g
                           id="g150"><path
                             d="m 52.482,113.236 h 5.652 c 0,0 2.21,-0.173 3.171,-2.559 l 0.077,-40.169 c 0,0 0.087,-1.505 -1.411,-1.705 -1.542,0.112 -23.198,0 -23.198,0"
                             style="fill:url(#linearGradient140);stroke:none"
                             id="path148"
                             inkscape:connector-curvature="0" /></g></g></g></g></g></g></g></g></g></g></mask><clipPath
       clipPathUnits="userSpaceOnUse"
       id="clipPath176"><path
         d="M 36.7734,113.236 H 61.3828 V 68.8028 H 36.7734 Z"
         id="path174"
         inkscape:connector-curvature="0" /></clipPath><linearGradient
       x1="0"
       y1="0"
       x2="1"
       y2="0"
       gradientUnits="userSpaceOnUse"
       gradientTransform="matrix(24.609346,0,0,-24.609346,36.773415,91.019592)"
       spreadMethod="pad"
       id="linearGradient188"><stop
         style="stop-opacity:1;stop-color:#ffffff"
         offset="0"
         id="stop182" /><stop
         style="stop-opacity:1;stop-color:#ffffff"
         offset="0.3751445"
         id="stop184" /><stop
         style="stop-opacity:1;stop-color:#ffffff"
         offset="1"
         id="stop186" /></linearGradient></defs><sodipodi:namedview
     pagecolor="#ffffff"
     bordercolor="#666666"
     borderopacity="1"
     objecttolerance="10"
     gridtolerance="10"
     guidetolerance="10"
     inkscape:pageopacity="0"
     inkscape:pageshadow="2"
     inkscape:window-width="743"
     inkscape:window-height="480"
     id="namedview4"
     showgrid="false"
     inkscape:zoom="0.87893529"
     inkscape:cx="153.754"
     inkscape:cy="134.25334"
     inkscape:window-x="0"
     inkscape:window-y="0"
     inkscape:window-maximized="0"
     inkscape:current-layer="g10" /><g
     id="g10"
     inkscape:groupmode="layer"
     inkscape:label="img2-2"
     transform="matrix(1.3333333,0,0,-1.3333333,0,268.50667)"><g
       id="g12"><g
         id="g14"
         clip-path="url(#clipPath18)"><g
           id="g20"
           transform="translate(208.5361,97.1133)"><path
             d="m 0,0 c 0,-46.811 -37.949,-84.761 -84.762,-84.761 -46.812,0 -84.76,37.95 -84.76,84.761 0,46.813 37.948,84.762 84.76,84.762 C -37.949,84.762 0,46.813 0,0"
             style="fill:#f26327;fill-opacity:1;fill-rule:nonzero;stroke:none"
             id="path22"
             inkscape:connector-curvature="0" /></g><g
           id="g24"
           transform="translate(106.7744,62.4512)"><path
             d="M 0,0 V 0.027 -0.005 -0.016 C 0,-0.628 0.573,-1 3.171,-1 h 12.469 0.787 12.469 c 2.598,0 3.507,0 3.515,1 h -0.242 z"
             style="fill:#132c35;fill-opacity:1;fill-rule:nonzero;stroke:none"
             id="path26"
             inkscape:connector-curvature="0" /></g><g
           id="g28"
           transform="translate(135.8457,65.9199)"><path
             d="m 0,0 c -2.318,2.363 -2.406,7.531 -2.406,7.531 h -10.412 -0.787 -10.414 c 0,0 -0.087,-5.168 -2.406,-7.531 -2.319,-2.361 -5.95,-4.469 0.35,-4.469 h 12.47 0.787 12.468 c 6.3,0 2.668,2.108 0.35,4.469"
             style="fill:#132c35;fill-opacity:1;fill-rule:nonzero;stroke:none"
             id="path30"
             inkscape:connector-curvature="0" /></g><g
           id="g32"
           transform="translate(124.7041,61.4512)"><path
             d="M 0,0 C 1.287,2.817 5.396,5.296 10.508,5.797 10.742,5.399 11.01,4.969 11.317,4.655 13.595,2.334 17.14,0 11.289,0 Z"
             style="fill:#42515b;fill-opacity:1;fill-rule:nonzero;stroke:none"
             id="path34"
             inkscape:connector-curvature="0" /></g><g
           id="g36"
           transform="translate(120.9126,61.4512)"><path
             d="M 0,0 C -1.286,2.817 -5.396,5.296 -10.507,5.797 -10.742,5.399 -11.009,4.969 -11.317,4.655 -13.595,2.334 -17.139,0 -11.289,0 Z"
             style="fill:#42515b;fill-opacity:1;fill-rule:nonzero;stroke:none"
             id="path38"
             inkscape:connector-curvature="0" /></g><g
           id="g40"
           transform="translate(109.624,61.7061)"><path
             d="M 0,0 C 2.17,0.037 4.341,0.054 6.512,0.067 L 13.023,0.088 19.535,0.067 22.79,0.044 26.047,0 22.79,-0.043 19.535,-0.066 13.023,-0.088 6.512,-0.066 C 4.341,-0.053 2.17,-0.036 0,0"
             style="fill:#132c35;fill-opacity:1;fill-rule:nonzero;stroke:none"
             id="path42"
             inkscape:connector-curvature="0" /></g><g
           id="g44"
           transform="translate(68.7744,76.7559)"><path
             d="m 0,0 c 0,-1.739 2.201,-3.305 3.941,-3.305 h 48.825 1.661 48.825 c 1.74,0 3.748,1.566 3.748,3.305 V 5.695 H 0 Z"
             style="fill:#42505b;fill-opacity:1;fill-rule:nonzero;stroke:none"
             id="path46"
             inkscape:connector-curvature="0" /></g><path
           d="m 170.774,87.451 h -97 v 54 h 97 z m 1.252,59 H 123.202 121.54 72.715 c -1.74,0 -3.941,-1.631 -3.941,-3.371 V 82.451 h 107 v 60.629 c 0,1.74 -2.007,3.371 -3.748,3.371"
           style="fill:#132c35;fill-opacity:1;fill-rule:nonzero;stroke:none"
           id="path48"
           inkscape:connector-curvature="0" /><g
           id="g50"
           transform="translate(68.7744,77.1065)"><path
             d="m 0,0 c 0,-1.74 2.201,-3.655 3.941,-3.655 h 48.825 1.661 48.825 C 104.992,-3.655 107,-1.74 107,0 V 5.345 H 0 Z"
             style="fill:#132c35;fill-opacity:1;fill-rule:nonzero;stroke:none"
             id="path52"
             inkscape:connector-curvature="0" /></g><path
           d="M 170.592,86.988 H 73.957 v 54.992 h 96.635 z"
           style="fill:#ffffff;fill-opacity:1;fill-rule:nonzero;stroke:none"
           id="path54"
           inkscape:connector-curvature="0" /><path
           d="M 168.389,133.566 H 79.075 v 4.327 h 89.314 z"
           style="fill:#f58560;fill-opacity:1;fill-rule:nonzero;stroke:none"
           id="path56"
           inkscape:connector-curvature="0" /><path
           d="m 168.389,120.98 h -49.245 v 1.586 h 49.245 z"
           style="fill:#f58560;fill-opacity:1;fill-rule:nonzero;stroke:none"
           id="path58"
           inkscape:connector-curvature="0" /><g
           id="g60"
           transform="translate(91.7261,129.6387)"><path
             d="m 0,0 c -5.533,0 -10.047,-2.908 -10.047,-6.473 0,-2.704 2.597,-5.027 6.264,-5.994 0.603,-1.66 1.578,-3.109 3.046,-4.765 -0.639,1.349 -0.975,2.915 -1.051,4.391 0.581,-0.067 1.177,-0.104 1.788,-0.104 5.534,0 10.048,2.907 10.048,6.472 C 10.048,-2.908 5.534,0 0,0"
             style="fill:#72ccd4;fill-opacity:1;fill-rule:nonzero;stroke:none"
             id="path62"
             inkscape:connector-curvature="0" /></g><path
           d="m 168.389,102.37 h -49.245 v 18.61 h 49.245 z"
           style="fill:#132c35;fill-opacity:1;fill-rule:nonzero;stroke:none"
           id="path64"
           inkscape:connector-curvature="0" /><path
           d="m 101.774,106.451 h -20 v 3 h 20 z"
           style="fill:#f58560;fill-opacity:1;fill-rule:nonzero;stroke:none"
           id="path66"
           inkscape:connector-curvature="0" /><path
           d="m 101.774,100.451 h -20 v 3 h 20 z"
           style="fill:#ffd57b;fill-opacity:1;fill-rule:nonzero;stroke:none"
           id="path68"
           inkscape:connector-curvature="0" /><path
           d="m 101.774,95.451 h -20 v 2 h 20 z"
           style="fill:#fdb952;fill-opacity:1;fill-rule:nonzero;stroke:none"
           id="path70"
           inkscape:connector-curvature="0" /><path
           d="m 168.774,91.451 h -50 v 5 h 50 z"
           style="fill:#fdb952;fill-opacity:1;fill-rule:nonzero;stroke:none"
           id="path72"
           inkscape:connector-curvature="0" /><path
           d="m 225.238,63.633 h -39.647 v 53.783 h 39.647 z"
           style="fill:#ffffff;fill-opacity:1;fill-rule:nonzero;stroke:none"
           id="path74"
           inkscape:connector-curvature="0" /><path
           d="m 225.481,63.633 h -39.912 v 53.707 h 39.912 z m 5.15,56.788 c 0,1.448 -1.173,2.621 -2.62,2.621 h -44.787 c -1.449,0 -2.621,-1.173 -2.621,-2.621 V 60.736 c 0,-1.448 1.172,-2.621 2.621,-2.621 h 44.787 c 1.447,0 2.62,1.173 2.62,2.621 z"
           style="fill:#132c35;fill-opacity:1;fill-rule:nonzero;stroke:none"
           id="path76"
           inkscape:connector-curvature="0" /><g
           id="g78"
           transform="translate(205.0527,92.6582)"><path
             d="M 0,0 C -0.433,0 -0.776,1.292 -0.776,2.885 -0.776,4.478 -0.432,5.77 0,5.77 0.433,5.77 0.785,4.479 0.785,2.885 0.787,1.292 0.436,0 0,0 m 0.003,12.236 c -4.106,0 -7.438,-3.325 -7.438,-7.435 0,-2.502 1.245,-4.705 3.143,-6.051 h 8.591 c 1.893,1.346 3.139,3.549 3.139,6.051 0.001,4.108 -3.329,7.435 -7.435,7.435"
             style="fill:#ffd57b;fill-opacity:1;fill-rule:nonzero;stroke:none"
             id="path80"
             inkscape:connector-curvature="0" /></g><path
           d="m 201.719,87.534 h 6.674 v -0.945 h -6.674 z m 0,1.887 h 6.674 v -0.942 h -6.674 z m -0.934,-4.147 h 2.013 c 0.266,-0.629 1.152,-1.105 2.257,-1.105 1.104,0 1.99,0.476 2.256,1.105 h 2.017 v 5.261 h -8.543 z"
           style="fill:#ffd57b;fill-opacity:1;fill-rule:nonzero;stroke:none"
           id="path82"
           inkscape:connector-curvature="0" /><g
           id="g84"
           transform="translate(211.2724,104.3125)"><path
             d="M 0,0 3.14,3.139 4.475,1.804 1.333,-1.336 Z m -16.909,1.802 1.334,1.335 3.139,-3.136 -1.331,-1.337 z M -7.16,6.99 h 1.89 V 2.553 h -1.89 z"
             style="fill:#ffd57b;fill-opacity:1;fill-rule:nonzero;stroke:none"
             id="path86"
             inkscape:connector-curvature="0" /></g><path
           d="m 221.747,73.75 h -32.666 v 1.591 h 32.666 z"
           style="fill:#f58560;fill-opacity:1;fill-rule:nonzero;stroke:none"
           id="path88"
           inkscape:connector-curvature="0" /><path
           d="m 221.747,66.418 h -32.666 v 7.902 h 32.666 z"
           style="fill:#132c35;fill-opacity:1;fill-rule:nonzero;stroke:none"
           id="path90"
           inkscape:connector-curvature="0" /><path
           d="M 59.687,68.672 H 38.833 v 37.137 h 20.854 z m -7.999,39.975 c 0,-0.304 -0.249,-0.553 -0.554,-0.553 h -3.749 c -0.306,0 -0.554,0.249 -0.554,0.553 v 0.037 c 0,0.305 0.248,0.552 0.554,0.552 h 3.749 c 0.305,0 0.554,-0.247 0.554,-0.552 z m 9.712,1.089 c 0,1.934 -1.566,3.5 -3.499,3.5 H 40.333 c -1.934,0 -3.5,-1.566 -3.5,-3.5 V 64.744 c 0,-1.933 1.566,-3.5 3.5,-3.5 h 17.568 c 1.933,0 3.499,1.567 3.499,3.5 z"
           style="fill:#132c35;fill-opacity:1;fill-rule:nonzero;stroke:none"
           id="path92"
           inkscape:connector-curvature="0" /><path
           d="M 59.687,68.672 H 38.838 v 37.137 h 20.849 z"
           style="fill:#ffffff;fill-opacity:1;fill-rule:nonzero;stroke:none"
           id="path94"
           inkscape:connector-curvature="0" /><g
           id="g96"><g
             id="g98" /><g
             id="g170"
             mask="url(#mask142)"><g
               id="g172" /><g
               id="g204"><g
                 clip-path="url(#clipPath176)"
                 id="g202"
                 style="opacity:0.60000598"><g
                   id="g200"><g
                     id="g198"><g
                       id="g196"><g
                         id="g194"><g
                           id="g192"><path
                             d="m 52.482,113.236 h 5.652 c 0,0 2.21,-0.173 3.171,-2.559 l 0.077,-40.169 c 0,0 0.087,-1.505 -1.411,-1.705 -1.542,0.112 -23.198,0 -23.198,0"
                             style="fill:url(#linearGradient188);stroke:none"
                             id="path190"
                             inkscape:connector-curvature="0" /></g></g></g></g></g></g></g></g></g><g
           id="g206"
           transform="translate(46.3677,102.0235)"><path
             d="m 0,0 v -3.55 l -2.51,2.51 c -0.643,-0.643 -1.04,-1.53 -1.04,-2.51 0,-1.961 1.59,-3.55 3.55,-3.55 1.96,0 3.551,1.589 3.551,3.55 C 3.551,-1.59 1.96,0 0,0 m -2.916,-0.025 c 0.643,0.642 1.53,1.04 2.511,1.04 v -3.551 z"
             style="fill:#f58560;fill-opacity:1;fill-rule:nonzero;stroke:none"
             id="path208"
             inkscape:connector-curvature="0" /></g><path
           d="M 58.594,92.659 H 39.931 v 0.909 h 18.663 z"
           style="fill:#f58560;fill-opacity:1;fill-rule:nonzero;stroke:none"
           id="path210"
           inkscape:connector-curvature="0" /><path
           d="M 58.594,85.668 H 39.931 v 0.909 h 18.663 z"
           style="fill:#ffd57b;fill-opacity:1;fill-rule:nonzero;stroke:none"
           id="path212"
           inkscape:connector-curvature="0" /><path
           d="M 58.594,83.146 H 39.931 v 0.909 h 18.663 z"
           style="fill:#f58560;fill-opacity:1;fill-rule:nonzero;stroke:none"
           id="path214"
           inkscape:connector-curvature="0" /><path
           d="M 58.594,80.624 H 39.931 v 0.909 h 18.663 z"
           style="fill:#72ccd4;fill-opacity:1;fill-rule:nonzero;stroke:none"
           id="path216"
           inkscape:connector-curvature="0" /><path
           d="M 58.594,78.103 H 39.931 v 0.909 h 18.663 z"
           style="fill:#f58560;fill-opacity:1;fill-rule:nonzero;stroke:none"
           id="path218"
           inkscape:connector-curvature="0" /><path
           d="M 58.594,88.471 H 39.931 v 4.515 h 18.663 z"
           style="fill:#42505b;fill-opacity:1;fill-rule:nonzero;stroke:none"
           id="path220"
           inkscape:connector-curvature="0" /><g
           id="g222"
           transform="translate(203.5058,168.0391)"><path
             d="m 0,0 c 0,-7.588 -6.107,-13.739 -13.638,-13.739 h -42.191 c -7.529,0 -13.635,6.151 -13.635,13.739 0,6.852 4.978,12.528 11.491,13.568 -0.082,0.482 -0.127,0.976 -0.127,1.486 0,4.806 3.869,8.704 8.641,8.704 2.128,0 4.079,-0.777 5.584,-2.067 2.684,6.092 6.121,11.65 15.77,11.65 11.701,0 17.249,-9.093 17.249,-18.689 0,-0.4 -0.018,-0.797 -0.046,-1.192 C -4.681,12.185 0,6.642 0,0"
             style="fill:#0f3754;fill-opacity:1;fill-rule:nonzero;stroke:none"
             id="path224"
             inkscape:connector-curvature="0" /></g><g
           id="g226"
           transform="translate(170.0723,169.5235)"><path
             d="M 0,0 H -2.465 C -4.513,0 -6.18,-1.667 -6.18,-3.717 V -6.73 l 0.006,-0.046 0.209,-0.065 c 1.955,-0.61 3.654,-0.815 5.053,-0.815 2.731,0 4.314,0.779 4.412,0.828 l 0.194,0.099 0.021,-0.001 v 3.013 C 3.717,-1.667 2.048,0 0,0 m -4.134,3.102 c 0,-1.603 1.299,-2.904 2.902,-2.904 1.603,0 2.903,1.301 2.903,2.904 0,1.603 -1.3,2.901 -2.903,2.901 -1.603,0 -2.902,-1.298 -2.902,-2.901 M 7.746,6.548 H 3.777 C 3.124,6.548 2.496,6.44 1.909,6.245 2.648,5.468 3.105,4.418 3.105,3.26 3.105,2.421 2.863,1.639 2.448,0.974 4.058,0.102 5.151,-1.603 5.151,-3.557 v -2.208 c 0.387,-0.017 0.766,-0.03 1.128,-0.03 4.403,0 6.955,1.255 7.114,1.335 l 0.312,0.158 h 0.034 v 4.859 c 0,3.302 -2.689,5.991 -5.993,5.991 M 5.763,6.866 c 2.583,0 4.678,2.097 4.678,4.681 0,2.583 -2.095,4.679 -4.678,4.679 -2.585,0 -4.681,-2.096 -4.681,-4.679 0,-2.584 2.096,-4.681 4.681,-4.681 M -4.913,0.976 C -5.326,1.639 -5.57,2.421 -5.57,3.26 c 0,1.264 0.547,2.4 1.413,3.194 -0.333,0.058 -0.672,0.094 -1.023,0.094 h -3.968 c -3.305,0 -5.992,-2.689 -5.992,-5.991 v -4.859 l 0.012,-0.074 0.335,-0.104 c 2.715,-0.85 5.121,-1.209 7.177,-1.293 v 2.216 c 0,1.956 1.094,3.659 2.703,4.533 m -6.931,10.571 c 0,2.583 2.096,4.679 4.681,4.679 2.585,0 4.681,-2.096 4.681,-4.679 0,-2.584 -2.096,-4.681 -4.681,-4.681 -2.585,0 -4.681,2.097 -4.681,4.681"
             style="fill:#ffd57b;fill-opacity:1;fill-rule:nonzero;stroke:none"
             id="path228"
             inkscape:connector-curvature="0" /></g><g
           id="g230"
           transform="translate(58.02,141.0069)"><path
             d="m 0,0 c 0,-6.338 -5.1,-11.476 -11.39,-11.476 h -35.242 c -6.29,0 -11.388,5.138 -11.388,11.476 0,5.724 4.158,10.466 9.598,11.333 -0.069,0.402 -0.107,0.815 -0.107,1.241 0,4.016 3.231,7.27 7.218,7.27 1.778,0 3.407,-0.647 4.664,-1.726 2.241,5.088 5.113,9.731 13.173,9.731 9.773,0 14.406,-7.594 14.406,-15.609 0,-0.336 -0.014,-0.668 -0.036,-0.996 C -3.909,10.178 0,5.549 0,0"
             style="fill:#ffffff;fill-opacity:1;fill-rule:nonzero;stroke:none"
             id="path232"
             inkscape:connector-curvature="0" /></g><g
           id="g234"
           transform="translate(36.6377,141.9727)"><path
             d="m 0,0 c 0,-1.712 -1.392,-3.103 -3.103,-3.103 -1.711,0 -3.103,1.391 -3.103,3.103 0,1.71 1.392,3.103 3.103,3.103 C -1.392,3.103 0,1.71 0,0 M 4.485,1.735 H 3.657 C 3.433,1.735 3.172,1.937 3.086,2.177 3.008,2.4 2.915,2.621 2.811,2.836 2.701,3.064 2.742,3.391 2.9,3.549 l 0.59,0.59 c 0.412,0.412 0.412,1.083 0,1.497 L 2.533,6.592 C 2.333,6.792 2.067,6.901 1.784,6.901 1.501,6.901 1.236,6.792 1.036,6.592 L 0.446,6.003 C 0.352,5.908 0.194,5.852 0.025,5.852 c -0.106,0 -0.207,0.02 -0.291,0.062 -0.215,0.104 -0.436,0.197 -0.659,0.275 -0.24,0.086 -0.443,0.347 -0.443,0.571 v 0.828 c 0,0.584 -0.475,1.058 -1.059,1.058 H -3.78 c -0.584,0 -1.058,-0.474 -1.058,-1.058 V 6.76 C -4.838,6.536 -5.041,6.275 -5.281,6.189 -5.504,6.111 -5.726,6.019 -5.939,5.914 -6.023,5.874 -6.126,5.853 -6.23,5.853 c -0.17,0 -0.328,0.056 -0.423,0.151 l -0.588,0.588 c -0.2,0.2 -0.466,0.309 -0.749,0.309 -0.283,0 -0.549,-0.109 -0.749,-0.309 L -9.696,5.635 c -0.2,-0.199 -0.31,-0.466 -0.311,-0.748 0,-0.283 0.111,-0.549 0.311,-0.748 l 0.589,-0.59 C -8.949,3.39 -8.908,3.064 -9.019,2.836 -9.122,2.621 -9.214,2.4 -9.294,2.177 -9.378,1.937 -9.64,1.735 -9.863,1.735 h -0.828 c -0.584,0 -1.059,-0.475 -1.059,-1.058 v -1.353 c 0,-0.585 0.475,-1.06 1.059,-1.06 h 0.828 c 0.223,0 0.485,-0.202 0.57,-0.443 0.079,-0.221 0.171,-0.442 0.275,-0.657 0.11,-0.228 0.07,-0.555 -0.089,-0.713 l -0.589,-0.59 c -0.413,-0.412 -0.413,-1.084 0,-1.497 l 0.957,-0.958 c 0.2,-0.2 0.466,-0.31 0.749,-0.31 0.283,0 0.549,0.11 0.749,0.31 l 0.589,0.589 c 0.095,0.096 0.253,0.151 0.422,0.151 0.106,0 0.207,-0.02 0.291,-0.061 0.214,-0.105 0.436,-0.196 0.658,-0.275 0.24,-0.085 0.443,-0.347 0.443,-0.572 v -0.827 c 0,-0.583 0.474,-1.057 1.059,-1.057 h 1.352 c 0.584,0 1.059,0.474 1.059,1.057 v 0.827 c 0,0.225 0.203,0.487 0.443,0.572 0.222,0.079 0.444,0.17 0.658,0.274 0.083,0.04 0.186,0.062 0.291,0.062 0.169,0 0.328,-0.055 0.422,-0.151 l 0.59,-0.589 c 0.2,-0.2 0.465,-0.31 0.748,-0.31 0.283,0 0.549,0.11 0.749,0.31 l 0.957,0.958 c 0.412,0.412 0.412,1.085 0,1.497 L 2.901,-3.55 c -0.159,0.159 -0.199,0.486 -0.089,0.714 0.104,0.214 0.196,0.436 0.275,0.657 0.085,0.241 0.346,0.443 0.57,0.443 h 0.828 c 0.584,0 1.059,0.475 1.059,1.059 v 1.354 c 0,0.583 -0.475,1.058 -1.059,1.058"
             style="fill:#72ccd4;fill-opacity:1;fill-rule:nonzero;stroke:none"
             id="path236"
             inkscape:connector-curvature="0" /></g><g
           id="g238"
           transform="translate(25.2329,151.6485)"><path
             d="m 0,0 c 0,-0.758 -0.617,-1.375 -1.374,-1.375 -0.759,0 -1.375,0.617 -1.375,1.375 0,0.759 0.616,1.375 1.375,1.375 C -0.617,1.375 0,0.759 0,0 m 1.886,-1.148 c 0.02,0.056 0.087,0.105 0.119,0.105 h 0.414 c 0.389,0 0.706,0.315 0.706,0.705 v 0.676 c 0,0.389 -0.317,0.706 -0.706,0.706 H 2.005 C 1.973,1.044 1.906,1.092 1.886,1.148 1.845,1.266 1.796,1.383 1.741,1.495 1.715,1.548 1.729,1.628 1.752,1.649 l 0.294,0.295 c 0.275,0.276 0.275,0.724 0,0.998 L 1.568,3.421 C 1.435,3.554 1.257,3.628 1.068,3.628 0.88,3.628 0.703,3.554 0.569,3.42 L 0.275,3.126 C 0.266,3.117 0.234,3.102 0.189,3.102 0.163,3.102 0.138,3.107 0.12,3.116 0.007,3.171 -0.109,3.219 -0.227,3.261 -0.283,3.281 -0.331,3.348 -0.331,3.38 v 0.414 c 0,0.39 -0.316,0.706 -0.706,0.706 H -1.713 C -2.102,4.5 -2.419,4.184 -2.419,3.794 V 3.38 C -2.419,3.348 -2.466,3.281 -2.523,3.261 -2.641,3.219 -2.757,3.171 -2.87,3.116 -2.888,3.107 -2.913,3.102 -2.938,3.102 c -0.046,0 -0.078,0.015 -0.086,0.024 L -3.319,3.42 C -3.452,3.554 -3.63,3.628 -3.818,3.628 -4.007,3.628 -4.184,3.554 -4.317,3.42 L -4.795,2.942 c -0.276,-0.274 -0.276,-0.723 0,-0.999 L -4.501,1.649 C -4.479,1.628 -4.465,1.548 -4.491,1.495 -4.545,1.382 -4.594,1.266 -4.636,1.148 -4.656,1.092 -4.723,1.044 -4.754,1.044 h -0.415 c -0.389,0 -0.706,-0.317 -0.706,-0.706 v -0.676 c 0,-0.39 0.316,-0.706 0.706,-0.706 h 0.415 c 0.031,0 0.098,-0.048 0.118,-0.104 0.042,-0.118 0.091,-0.234 0.145,-0.347 0.026,-0.052 0.012,-0.133 -0.01,-0.154 l -0.294,-0.295 c -0.134,-0.133 -0.207,-0.31 -0.207,-0.499 0,-0.189 0.073,-0.367 0.207,-0.499 l 0.478,-0.479 c 0.133,-0.133 0.31,-0.207 0.499,-0.207 0.188,0 0.366,0.074 0.499,0.207 l 0.295,0.295 c 0.008,0.009 0.04,0.024 0.086,0.024 0.025,0 0.05,-0.005 0.068,-0.013 0.113,-0.055 0.23,-0.104 0.347,-0.146 0.057,-0.02 0.104,-0.087 0.104,-0.119 v -0.414 c 0,-0.39 0.317,-0.706 0.706,-0.706 h 0.676 c 0.39,0 0.706,0.316 0.706,0.706 v 0.414 c 0,0.032 0.048,0.099 0.104,0.119 0.118,0.041 0.234,0.091 0.347,0.146 0.018,0.008 0.043,0.012 0.069,0.012 0.045,0 0.076,-0.014 0.086,-0.023 L 0.57,-3.421 c 0.133,-0.133 0.31,-0.207 0.498,-0.207 0.189,0 0.367,0.074 0.5,0.207 l 0.478,0.479 c 0.275,0.275 0.275,0.722 0,0.998 l -0.294,0.295 c -0.023,0.021 -0.037,0.102 -0.011,0.154 0.055,0.113 0.104,0.229 0.145,0.347"
             style="fill:#72ccd4;fill-opacity:1;fill-rule:nonzero;stroke:none"
             id="path240"
             inkscape:connector-curvature="0" /></g><g
           id="g242"
           transform="translate(159.8877,13.918)"><path
             d="m 0,0 c 0,-7.687 -6.187,-13.918 -13.814,-13.918 h -42.742 c -7.628,0 -13.811,6.231 -13.811,13.918 0,6.941 5.043,12.692 11.64,13.744 -0.083,0.487 -0.129,0.988 -0.129,1.504 0,4.871 3.918,8.818 8.753,8.818 2.157,0 4.133,-0.786 5.658,-2.092 2.717,6.17 6.201,11.8 15.975,11.8 11.854,0 17.472,-9.211 17.472,-18.93 0,-0.406 -0.018,-0.809 -0.045,-1.208 C -4.742,12.343 0,6.729 0,0"
             style="fill:#ffd57b;fill-opacity:1;fill-rule:nonzero;stroke:none"
             id="path244"
             inkscape:connector-curvature="0" /></g><g
           id="g246"
           transform="translate(140.1592,24.7657)"><path
             d="m 0,0 h -7.678 v -9.905 c 0,-1.442 -1.173,-2.616 -2.615,-2.616 h -11.82 v -3.316 c 0,-0.825 0.669,-1.494 1.494,-1.494 h 11.612 l 4.854,-4.053 c 0.632,-0.528 0.973,-0.311 0.76,0.485 l -0.948,3.543 c -0.002,0.009 -0.006,0.017 -0.01,0.025 H 0 c 0.824,0 1.493,0.669 1.493,1.494 V -1.493 C 1.493,-0.669 0.824,0 0,0"
             style="fill:#0f3754;fill-opacity:1;fill-rule:nonzero;stroke:none"
             id="path248"
             inkscape:connector-curvature="0" /></g><g
           id="g250"
           transform="translate(109.249,13.3672)"><path
             d="M 0,0 H 2.284 C 2.282,-0.008 2.277,-0.016 2.275,-0.024 L 1.327,-3.567 C 1.192,-4.07 1.279,-4.342 1.518,-4.342 c 0.141,0 0.335,0.094 0.569,0.289 L 6.94,0 h 1.858 11.819 c 0.826,0 1.495,0.669 1.495,1.494 v 9.905 4.438 c 0,0.824 -0.669,1.494 -1.495,1.494 H 0 c -0.825,0 -1.494,-0.67 -1.494,-1.494 V 1.494 C -1.494,0.669 -0.826,0 0,0"
             style="fill:#0f3754;fill-opacity:1;fill-rule:nonzero;stroke:none"
             id="path252"
             inkscape:connector-curvature="0" /></g></g></g></g></svg>