<?xml version="1.0" encoding="UTF-8" standalone="no"?>
<!-- Generator: Adobe Illustrator 16.0.0, SVG Export Plug-In . SVG Version: 6.00 Build 0)  -->

<svg
   xmlns:dc="http://purl.org/dc/elements/1.1/"
   xmlns:cc="http://creativecommons.org/ns#"
   xmlns:rdf="http://www.w3.org/1999/02/22-rdf-syntax-ns#"
   xmlns:svg="http://www.w3.org/2000/svg"
   xmlns="http://www.w3.org/2000/svg"
   xmlns:sodipodi="http://sodipodi.sourceforge.net/DTD/sodipodi-0.dtd"
   xmlns:inkscape="http://www.inkscape.org/namespaces/inkscape"
   version="1.1"
   id="Capa_1"
   x="0px"
   y="0px"
   width="466.227px"
   height="466.227px"
   viewBox="0 0 466.227 466.227"
   style="enable-background:new 0 0 466.227 466.227;"
   xml:space="preserve"
   sodipodi:docname="rocket.svg"
   inkscape:version="0.92.1 r15371"><metadata
   id="metadata41"><rdf:RDF><cc:Work
       rdf:about=""><dc:format>image/svg+xml</dc:format><dc:type
         rdf:resource="http://purl.org/dc/dcmitype/StillImage" /></cc:Work></rdf:RDF></metadata><defs
   id="defs39" /><sodipodi:namedview
   pagecolor="#ffffff"
   bordercolor="#666666"
   borderopacity="1"
   objecttolerance="10"
   gridtolerance="10"
   guidetolerance="10"
   inkscape:pageopacity="0"
   inkscape:pageshadow="2"
   inkscape:window-width="743"
   inkscape:window-height="419"
   id="namedview37"
   showgrid="false"
   inkscape:zoom="0.5061912"
   inkscape:cx="-103.71576"
   inkscape:cy="233.11349"
   inkscape:window-x="603"
   inkscape:window-y="169"
   inkscape:window-maximized="0"
   inkscape:current-layer="Capa_1" />
<g
   id="g4"
   style="fill:#3a494c;fill-opacity:1">
	<path
   d="M463.36,2.852c-1.906-1.805-4.188-2.712-6.854-2.712c-49.677,0-90.694,6.755-123.051,20.271   c-32.353,13.518-66.424,38.072-102.208,73.662c-15.225,15.418-31.977,33.977-50.248,55.675l-108.205,5.708   c-3.046,0.387-5.52,1.906-7.423,4.57L1.418,269.666c-2.285,3.806-1.807,7.519,1.427,11.136l18.271,18.271   c1.714,1.714,3.901,2.569,6.567,2.569c1.143,0,1.997-0.096,2.568-0.287l78.802-24.273l80.228,80.232l-24.269,78.795   c-0.949,3.43-0.188,6.472,2.285,9.138l18.272,18.274c2.094,1.707,4.285,2.566,6.567,2.566c1.716,0,3.238-0.384,4.569-1.144   l109.639-63.953c2.666-1.902,4.186-4.373,4.568-7.419l5.708-108.209c21.7-18.274,40.262-35.022,55.676-50.251   c33.89-34.074,58.009-68.378,72.375-102.923c14.373-34.547,21.556-75.519,21.556-122.91C466.224,6.804,465.273,4.664,463.36,2.852z    M394.277,110.92c-5.325,5.326-11.8,7.994-19.414,7.994s-14.082-2.665-19.414-7.994c-5.325-5.33-7.994-11.802-7.994-19.417   c0-7.611,2.666-14.084,7.994-19.414c5.328-5.327,11.8-7.993,19.414-7.993s14.086,2.663,19.414,7.993s7.994,11.803,7.994,19.414   C402.271,99.119,399.612,105.586,394.277,110.92z"
   id="path2"
   style="fill:#3a494c;fill-opacity:1" />
</g>
<g
   id="g6">
</g>
<g
   id="g8">
</g>
<g
   id="g10">
</g>
<g
   id="g12">
</g>
<g
   id="g14">
</g>
<g
   id="g16">
</g>
<g
   id="g18">
</g>
<g
   id="g20">
</g>
<g
   id="g22">
</g>
<g
   id="g24">
</g>
<g
   id="g26">
</g>
<g
   id="g28">
</g>
<g
   id="g30">
</g>
<g
   id="g32">
</g>
<g
   id="g34">
</g>
</svg>