<svg xmlns="http://www.w3.org/2000/svg" width="175" height="200" viewBox="0 0 164.063 187.5"><path d="M0 .408C18.34-.369 36.716.63 55.074.316 75.326-.332 95.56.205 115.832.279c16.077.037 32.154-.074 48.23.055-5.058 56.093-10.153 112.186-14.844 168.316-21.54 6.159-43.099 12.225-64.64 18.347-2.758 1.146-5.591.074-8.24-.648-20.473-5.918-40.947-11.78-61.457-17.477C9.547 112.761 4.525 56.594 0 .408m82.372 14.63c-.755 27.667-.11 55.334-.332 83.001.203 25.3-.367 50.62.295 75.92 18.1-4.291 35.961-9.562 53.823-14.76 4.488-48.029 8.866-96.058 12.619-144.143-22.13-.222-44.277.037-66.405-.019m-23.03 108.044c-10.633-2.923-21.136-6.288-31.915-8.6-.313 6.436-.203 12.872.533 19.27 15.783 3.866 31.234 8.952 47.035 12.743.11-36.637-.055-73.292.074-109.93-5.15-.129-10.301-.203-15.452-.314-.588 28.925-.036 57.887-.276 86.83z" fill="#d6ba32"/><path d="M82.372 15.037c22.128.056 44.276-.203 66.405.019-3.753 48.085-8.13 96.114-12.62 144.144-17.86 5.197-35.722 10.468-53.822 14.758-.662-25.3-.092-50.618-.295-75.919.221-27.667-.423-55.334.332-83.002m6.199 21.509c.073 23.82.092 47.66 0 71.48 10.816-1.757 21.595-3.773 32.374-5.751-.165 5.548-.386 11.096-.625 16.644-10.503 2.812-20.988 5.715-31.547 8.323-.166 6.399-.184 12.798-.129 19.215 13.3-2.996 26.397-6.769 39.604-10.116 1.656-.777 4.838-.684 4.69-3.292 1.601-17.126 2.594-34.325 4.14-51.488-10.945.906-21.78 2.756-32.725 3.514-.092-9.728-.11-19.456.037-29.184 11.515 0 23.012 0 34.527.018.736-6.491 1.38-13.001 1.876-19.511-17.401.074-34.821-.166-52.222.148z" fill="#ffda3e"/><path d="M59.341 123.08c.24-28.943-.312-57.905.276-86.83 5.15.111 10.301.185 15.452.314-.129 36.638.037 73.293-.074 109.93-15.8-3.791-31.252-8.877-47.035-12.742-.736-6.4-.846-12.835-.533-19.271 10.779 2.312 21.282 5.677 31.914 8.6z" fill="#ebebeb"/></svg>