<svg xmlns="http://www.w3.org/2000/svg" viewBox="0 0 428 428"><path d="M29.5 111.367h236a5.5 5.5 0 0 0 0-11h-236a5.5 5.5 0 0 0 0 11zm0 53h55a5.5 5.5 0 0 0 0-11h-55a5.5 5.5 0 0 0 0 11zm0 53h22a5.5 5.5 0 0 0 0-11h-22a5.5 5.5 0 0 0 0 11z"/><path d="M422.5 118.367H330v-85.5a5.5 5.5 0 0 0-5.5-5.5H5.5a5.5 5.5 0 0 0-5.5 5.5v271.27a5.5 5.5 0 0 0 5.5 5.5H98v85.496a5.5 5.5 0 0 0 5.5 5.5h319a5.5 5.5 0 0 0 5.5-5.5V123.867a5.5 5.5 0 0 0-5.5-5.5zm-5.5 39H109v-28h308v28zm-98-119v28H11v-28h308zM11 298.637V77.367h308v41H103.5a5.5 5.5 0 0 0-5.5 5.5v3H29.5a5.5 5.5 0 0 0 0 11H98v42H29.5a5.5 5.5 0 0 0 0 11H98v42H29.5a5.5 5.5 0 0 0 0 11H98v15.5H29.5a5.5 5.5 0 0 0 0 11H98v28.27H11zm98 90.996V168.367h308v221.266H109z"/><path d="M127.5 202.367h143a5.5 5.5 0 0 0 0-11h-143a5.5 5.5 0 0 0 0 11zm0 26.5h189a5.5 5.5 0 0 0 0-11h-189a5.5 5.5 0 0 0 0 11zm0 26.5h236a5.5 5.5 0 0 0 0-11h-236a5.5 5.5 0 0 0 0 11zm262 42h-262a5.5 5.5 0 0 0 0 11h262a5.5 5.5 0 0 0 0-11zm-262-15.5h138a5.5 5.5 0 0 0 0-11h-138a5.5 5.5 0 0 0 0 11zm0 53h208a5.5 5.5 0 0 0 0-11h-208a5.5 5.5 0 0 0 0 11zm236 15.5h-236a5.5 5.5 0 0 0 0 11h236a5.5 5.5 0 0 0 0-11z"/><circle cx="30.5" cy="52.367" r="6.531"/><circle cx="51.346" cy="52.367" r="6.531"/><circle cx="72.191" cy="52.367" r="6.531"/><circle cx="130.808" cy="143.367" r="6.531"/><circle cx="151.654" cy="143.367" r="6.531"/><circle cx="172.5" cy="143.367" r="6.531"/></svg>